<?xml version="1.0" encoding="utf-8"?>
<!-- Generator: Adobe Illustrator 23.0.1, SVG Export Plug-In . SVG Version: 6.00 Build 0)  -->
<svg version="1.1" id="Layer_1" xmlns="http://www.w3.org/2000/svg" xmlns:xlink="http://www.w3.org/1999/xlink" x="0px" y="0px"
	 viewBox="0 0 71 71" style="enable-background:new 0 0 71 71;" xml:space="preserve">
<style type="text/css">
	.st0{fill:#45B649;}
	.st1{fill:#FFFFFF;}
</style>
<circle class="st0" cx="35.5" cy="35.5" r="32.2"/>
<g>
	<g>
		<path class="st1" d="M15.4,50.9c-0.2-0.2-0.3-0.6-0.3-1V21.1c0-0.5,0.1-0.8,0.3-1c0.2-0.2,0.5-0.3,1-0.3h7.8
			c2.8,0,4.9,0.7,6.4,2.1c1.4,1.4,2.1,3.4,2.1,5.8c0,1.5-0.4,2.9-1.2,4.3c-0.8,1.4-1.8,2.2-2.8,2.6v0.2c1.2,0.4,2.3,1.2,3.4,2.2
			c1.1,1.1,1.7,2.8,1.7,5.2c0,3.1-0.8,5.4-2.4,6.8c-1.6,1.5-4,2.2-7.2,2.2h-7.8C15.9,51.2,15.6,51.1,15.4,50.9z M23.8,33.3
			c1.4,0,2.5-0.5,3.4-1.5c0.9-1,1.3-2.3,1.3-3.7c0-1.7-0.4-2.9-1.1-3.7c-0.8-0.8-2-1.2-3.6-1.2h-4.6v10.2H23.8z M24.9,47.8
			c1.4,0,2.6-0.5,3.4-1.5c0.8-1,1.2-2.4,1.2-4.3c0-1.6-0.5-2.9-1.4-3.9c-0.9-0.9-2.2-1.4-3.9-1.4h-5.2v11.1
			C19.1,47.8,24.9,47.8,24.9,47.8z"/>
		<path class="st1" d="M39.1,50.3V21.1c0-0.5,0.1-0.8,0.3-1c0.2-0.2,0.5-0.3,0.9-0.3h7.4c2.1,0,4,0.6,5.7,1.9
			c1.7,1.3,2.5,3.6,2.5,6.9c0,2.5-0.5,4.4-1.4,5.8c-1,1.4-2,2.3-3.2,2.8c-1.2,0.5-2.3,0.7-3.2,0.7h-4.9v12.5c0,0.7-0.6,1-1.7,1h-0.6
			C39.7,51.3,39.1,51,39.1,50.3z M47.9,34.4c1,0,1.9-0.4,2.7-1.3c0.8-0.9,1.2-2.4,1.2-4.5c0-2-0.4-3.4-1.2-4.2
			c-0.8-0.8-1.8-1.2-3-1.2h-4.4v11.2L47.9,34.4L47.9,34.4z"/>
	</g>
</g>
</svg>
