<?xml version="1.0" encoding="utf-8"?>
<!-- Generator: Adobe Illustrator 23.0.1, SVG Export Plug-In . SVG Version: 6.00 Build 0)  -->
<svg version="1.1" id="Layer_1" xmlns="http://www.w3.org/2000/svg" xmlns:xlink="http://www.w3.org/1999/xlink" x="0px" y="0px"
	 viewBox="0 0 71 71" style="enable-background:new 0 0 71 71;" xml:space="preserve">
<style type="text/css">
	.st0{fill:#E50000;}
	.st1{fill:#BC0000;}
	.st2{fill:#FFFFFF;}
</style>
<circle class="st0" cx="35.5" cy="35.5" r="32.2"/>
<g>
	<g>
		<path class="st1" d="M38.3,47.8L38.3,47.8h-1.7l0,0c-1.6,0-2.6,0.3-3,0.9c-0.1,0.2-0.2,0.5-0.2,0.7v4.8c0,0.3,0.1,0.5,0.2,0.7
			c0.4,0.6,1.4,0.9,3,0.9l0,0h1.7l0,0c1.6,0,2.6-0.3,3-0.9c0.1-0.2,0.2-0.5,0.2-0.7v-4.8c0-0.3-0.1-0.5-0.2-0.7
			C40.9,48.1,39.9,47.8,38.3,47.8z"/>
		<path class="st1" d="M34.7,43.2c0.1,0.3,0.2,0.5,0.5,0.7c0.4,0.3,1,0.4,2.1,0.4h0.1h0.5h0.1c1,0,1.7-0.1,2.1-0.4
			c0.2-0.2,0.4-0.4,0.5-0.7c0.1-0.2,0.2-0.4,0.2-0.6l2.6-22.1c0-0.5-0.3-0.9-0.8-1.1C41.8,19.1,41,19,40,19h-2.3c-0.1,0-0.1,0-0.2,0
			s-0.1,0-0.2,0H35c-1,0-1.8,0.1-2.3,0.4s-0.8,0.6-0.8,1.1l2.6,22.1C34.5,42.8,34.6,43,34.7,43.2z"/>
	</g>
	<g>
		<path class="st2" d="M36.3,45.8L36.3,45.8h-1.7l0,0c-1.6,0-2.6,0.3-3,0.9c-0.1,0.2-0.2,0.5-0.2,0.7v4.8c0,0.3,0.1,0.5,0.2,0.7
			c0.4,0.6,1.4,0.9,3,0.9l0,0h1.7l0,0c1.6,0,2.6-0.3,3-0.9c0.1-0.2,0.2-0.5,0.2-0.7v-4.8c0-0.3-0.1-0.5-0.2-0.7
			C38.9,46.1,37.9,45.8,36.3,45.8z"/>
		<path class="st2" d="M32.7,41.2c0.1,0.3,0.2,0.5,0.5,0.7c0.4,0.3,1,0.4,2.1,0.4h0.1h0.5h0.1c1,0,1.7-0.1,2.1-0.4
			c0.2-0.2,0.4-0.4,0.5-0.7c0.1-0.2,0.2-0.4,0.2-0.6l2.6-22.1c0-0.5-0.3-0.9-0.8-1.1C39.8,17.1,39,17,38,17h-2.3c-0.1,0-0.1,0-0.2,0
			s-0.1,0-0.2,0H33c-1,0-1.8,0.1-2.3,0.4s-0.8,0.6-0.8,1.1l2.6,22.1C32.5,40.8,32.6,41,32.7,41.2z"/>
	</g>
</g>
</svg>
