<?xml version="1.0" encoding="utf-8"?>
<!-- Generator: Adobe Illustrator 23.0.1, SVG Export Plug-In . SVG Version: 6.00 Build 0)  -->
<svg version="1.1" id="Layer_1" xmlns="http://www.w3.org/2000/svg" xmlns:xlink="http://www.w3.org/1999/xlink" x="0px" y="0px"
	 viewBox="0 0 71 71" style="enable-background:new 0 0 71 71;" xml:space="preserve">
<style type="text/css">
	.st0{fill:#45B649;}
	.st1{fill:#FFFFFF;}
</style>
<circle class="st0" cx="35.5" cy="35.5" r="32.2"/>
<g>
	<path class="st1" d="M10.2,47.1c-0.2-0.5-0.3-1-0.3-1.4c0-0.1,0-0.3,0.1-0.4l10.6-18.8h-9.1c-0.3,0-0.5-0.1-0.6-0.3
		c-0.1-0.2-0.2-0.6-0.2-1v-0.5c0-0.5,0.1-0.9,0.2-1.1c0.1-0.2,0.3-0.3,0.6-0.3h12.9c0.2,0,0.4,0.3,0.6,0.8c0.2,0.5,0.3,1,0.3,1.4
		c0,0.2,0,0.3,0,0.4L14.7,44.6h9.9c0.5,0,0.8,0.5,0.8,1.4v0.5c0,0.5-0.1,0.9-0.2,1.1c-0.1,0.2-0.3,0.3-0.6,0.3H10.9
		C10.7,47.9,10.4,47.6,10.2,47.1z"/>
	<path class="st1" d="M28.1,47.1c-0.2-0.5-0.3-1-0.3-1.4c0-0.1,0-0.3,0.1-0.4l10.6-18.8h-9.1c-0.3,0-0.5-0.1-0.6-0.3s-0.2-0.6-0.2-1
		v-0.5c0-0.5,0.1-0.9,0.2-1.1s0.3-0.3,0.6-0.3h12.9c0.2,0,0.4,0.3,0.6,0.8c0.2,0.5,0.3,1,0.3,1.4c0,0.2,0,0.3,0,0.4L32.6,44.6h9.9
		c0.5,0,0.8,0.5,0.8,1.4v0.5c0,0.5-0.1,0.9-0.2,1.1c-0.1,0.2-0.3,0.3-0.6,0.3H28.8C28.6,47.9,28.3,47.6,28.1,47.1z"/>
	<path class="st1" d="M46,47.1c-0.2-0.5-0.3-1-0.3-1.4c0-0.1,0-0.3,0.1-0.4l10.6-18.8h-9.1c-0.3,0-0.5-0.1-0.6-0.3
		c-0.1-0.2-0.2-0.6-0.2-1v-0.5c0-0.5,0.1-0.9,0.2-1.1c0.1-0.2,0.3-0.3,0.6-0.3h12.9c0.2,0,0.4,0.3,0.6,0.8c0.2,0.5,0.3,1,0.3,1.4
		c0,0.2,0,0.3,0,0.4L50.5,44.6h9.9c0.5,0,0.8,0.5,0.8,1.4v0.5c0,0.5-0.1,0.9-0.2,1.1c-0.1,0.2-0.3,0.3-0.6,0.3H46.7
		C46.4,47.9,46.2,47.6,46,47.1z"/>
</g>
</svg>
