<?xml version="1.0" encoding="utf-8"?>
<!-- Generator: Adobe Illustrator 23.0.1, SVG Export Plug-In . SVG Version: 6.00 Build 0)  -->
<svg version="1.1" id="Layer_1" xmlns="http://www.w3.org/2000/svg" xmlns:xlink="http://www.w3.org/1999/xlink" x="0px" y="0px"
	 viewBox="0 0 71 71" style="enable-background:new 0 0 71 71;" xml:space="preserve">
<style type="text/css">
	.st0{fill:#FFB600;}
	.st1{fill:#FFFFFF;}
</style>
<polygon class="st0" points="35.5,4.7 2.8,66.3 68.2,66.3 "/>
<g>
	<g>
		<path class="st1" d="M36.3,52.8L36.3,52.8h-1.7l0,0c-1.6,0-2.6,0.3-3,0.9c-0.1,0.2-0.2,0.5-0.2,0.7v4.8c0,0.3,0.1,0.5,0.2,0.7
			c0.4,0.6,1.4,0.9,3,0.9l0,0h1.7l0,0c1.6,0,2.6-0.3,3-0.9c0.1-0.2,0.2-0.5,0.2-0.7v-4.8c0-0.3-0.1-0.5-0.2-0.7
			C38.9,53.1,37.9,52.8,36.3,52.8z"/>
		<path class="st1" d="M32.7,48.2c0.1,0.3,0.2,0.5,0.5,0.7c0.4,0.3,1,0.4,2.1,0.4h0.1h0.5h0.1c1,0,1.7-0.1,2.1-0.4
			c0.2-0.2,0.4-0.4,0.5-0.7c0.1-0.2,0.2-0.4,0.2-0.6l2.6-22.1c0-0.5-0.3-0.9-0.8-1.1C39.8,24.1,39,24,38,24h-2.3c-0.1,0-0.1,0-0.2,0
			s-0.1,0-0.2,0H33c-1,0-1.8,0.1-2.3,0.4s-0.8,0.6-0.8,1.1l2.6,22.1C32.5,47.8,32.6,48,32.7,48.2z"/>
	</g>
</g>
</svg>
