<?xml version="1.0" encoding="utf-8"?>
<!-- Generator: Adobe Illustrator 23.0.1, SVG Export Plug-In . SVG Version: 6.00 Build 0)  -->
<svg version="1.1" id="Layer_1" xmlns="http://www.w3.org/2000/svg" xmlns:xlink="http://www.w3.org/1999/xlink" x="0px" y="0px"
	 viewBox="0 0 71 71" style="enable-background:new 0 0 71 71;" xml:space="preserve">
<style type="text/css">
	.st0{fill:#45B649;}
	.st1{fill:#FFB600;}
	.st2{fill:#FFFFFF;}
</style>
<circle class="st0" cx="35.5" cy="35.5" r="32.2"/>
<polygon class="st1" points="54.8,38.6 40.7,65.4 69,65.4 "/>
<g>
	<path class="st2" d="M55.2,59.7L55.2,59.7h-0.8l0,0c-0.7,0-1.2,0.1-1.3,0.4c-0.1,0.1-0.1,0.2-0.1,0.3v2.2c0,0.1,0,0.2,0.1,0.3
		c0.2,0.3,0.6,0.4,1.3,0.4l0,0h0.8l0,0c0.7,0,1.2-0.1,1.3-0.4c0.1-0.1,0.1-0.2,0.1-0.3v-2.2c0-0.1,0-0.2-0.1-0.3
		C56.4,59.8,55.9,59.7,55.2,59.7z"/>
	<path class="st2" d="M53.6,57.6c0,0.1,0.1,0.2,0.2,0.3c0.2,0.1,0.5,0.2,0.9,0.2h0H55h0c0.5,0,0.8-0.1,0.9-0.2
		c0.1-0.1,0.2-0.2,0.2-0.3c0-0.1,0.1-0.2,0.1-0.3l1.2-10c0-0.2-0.1-0.4-0.4-0.5c-0.2-0.1-0.6-0.2-1-0.2h-1c0,0-0.1,0-0.1,0
		s-0.1,0-0.1,0h-1c-0.5,0-0.8,0-1,0.2c-0.2,0.1-0.4,0.3-0.4,0.5l1.2,10C53.5,57.5,53.5,57.5,53.6,57.6z"/>
</g>
<polygon class="st2" points="32.3,50.6 19.7,36.2 23.5,32.8 31.6,42 45.3,19.9 49.6,22.5 "/>
</svg>
